<svg width="1440" height="1024" viewBox="0 0 1440 1024" fill="none" xmlns="http://www.w3.org/2000/svg">
<g clip-path="url(#clip0)">
<path fill-rule="evenodd" clip-rule="evenodd" d="M1304.1 -171.159C1385.73 -182.364 1494.57 -201.068 1535.32 -129.454C1575.82 -58.2743 1469.96 8.7885 1451.95 88.6795C1433.81 169.16 1493.87 267.189 1433.28 323.183C1361.24 389.769 1228.43 428.398 1156.24 361.967C1084.52 295.968 1177.48 182.024 1174.04 84.6198C1172.02 27.3734 1114.83 -24.2383 1140.8 -75.2984C1170.9 -134.494 1238.31 -162.127 1304.1 -171.159Z" stroke="#F1FAEE" stroke-opacity="0.05" stroke-width="5"/>
<path fill-rule="evenodd" clip-rule="evenodd" d="M1281.89 -13.3093C1332.19 -20.2246 1399.25 -31.7678 1424.36 12.4286C1449.31 56.3569 1384.08 97.7445 1372.99 147.049C1361.81 196.717 1398.82 257.215 1361.49 291.772C1317.09 332.865 1235.27 356.706 1190.79 315.707C1146.6 274.977 1203.87 204.656 1201.75 144.544C1200.51 109.214 1165.27 77.3622 1181.27 45.8506C1199.81 9.31808 1241.35 -7.7357 1281.89 -13.3093Z" stroke="#F1FAEE" stroke-opacity="0.05" stroke-width="5"/>
<path fill-rule="evenodd" clip-rule="evenodd" d="M1286.4 -169.331C1381.69 -182.425 1508.74 -204.283 1556.31 -120.595C1603.59 -37.4138 1480.01 40.956 1458.99 134.317C1437.81 228.367 1507.93 342.923 1437.2 408.358C1353.1 486.171 1198.07 531.314 1113.8 453.681C1030.08 376.555 1138.59 243.4 1134.58 129.573C1132.22 62.6744 1065.46 2.36083 1095.77 -57.3082C1130.91 -126.485 1209.6 -158.777 1286.4 -169.331Z" stroke="#F1FAEE" stroke-opacity="0.05" stroke-width="5"/>
<path fill-rule="evenodd" clip-rule="evenodd" d="M1264.37 -168.15C1368.5 -182.465 1507.33 -206.36 1559.31 -114.872C1610.98 -23.939 1475.94 61.7345 1452.97 163.796C1429.83 266.611 1506.44 391.843 1429.16 463.377C1337.25 548.441 1167.84 597.791 1075.75 512.924C984.264 428.61 1102.85 283.045 1098.46 158.61C1095.88 85.4769 1022.93 19.5424 1056.05 -45.6875C1094.44 -121.311 1180.44 -156.613 1264.37 -168.15Z" stroke="#F1FAEE" stroke-opacity="0.05" stroke-width="5"/>
<path fill-rule="evenodd" clip-rule="evenodd" d="M1232.56 -191.714C1354.96 -208.547 1518.16 -236.645 1579.26 -129.063C1640 -22.134 1481.26 78.6106 1454.26 198.626C1427.05 319.528 1517.12 466.79 1426.27 550.907C1318.23 650.935 1119.1 708.967 1010.85 609.17C903.309 510.025 1042.7 338.853 1037.54 192.528C1034.51 106.53 948.756 28.9964 987.687 -47.7083C1032.82 -136.635 1133.91 -178.147 1232.56 -191.714Z" stroke="#F1FAEE" stroke-opacity="0.05" stroke-width="5"/>
<path fill-rule="evenodd" clip-rule="evenodd" d="M684.55 968.544C735.803 964.814 774.698 898.558 824.984 909.144C871.331 918.901 905.109 970.742 915.01 1017.06C925.493 1066.1 893.397 1113.4 878.912 1161.41C870.513 1189.25 837.546 1214.25 847.244 1241.66C867.244 1298.19 945.667 1322.89 956.883 1381.8C966.403 1431.8 940.305 1490.09 900.611 1521.95C861.265 1553.53 803.237 1544.92 752.79 1545.61C707.721 1546.22 662.87 1541.21 620.529 1525.76C580.796 1511.26 530.059 1497.96 514.484 1458.64C495.944 1411.83 539.37 1360.89 535.353 1310.7C533.294 1284.98 511.89 1265.55 497.326 1244.24C471.946 1207.12 415.092 1182.58 417.049 1137.65C418.743 1098.77 483.987 1095.71 505.219 1063.09C531.4 1022.88 510.483 951.322 552.93 928.942C593.906 907.338 638.35 971.906 684.55 968.544Z" stroke="#F1FAEE" stroke-opacity="0.05" stroke-width="5"/>
<path fill-rule="evenodd" clip-rule="evenodd" d="M683.521 896.341C743.964 891.946 789.833 813.875 849.136 826.348C903.792 837.845 943.626 898.931 955.302 953.507C967.665 1011.29 929.814 1067.03 912.732 1123.61C902.828 1156.41 863.95 1185.87 875.387 1218.17C898.973 1284.78 991.456 1313.88 1004.68 1383.29C1015.91 1442.21 985.133 1510.9 938.322 1548.44C891.922 1585.65 823.489 1575.51 763.997 1576.32C710.847 1577.04 657.955 1571.14 608.021 1552.93C561.165 1535.85 501.33 1520.18 482.963 1473.84C461.098 1418.68 512.31 1358.66 507.574 1299.52C505.146 1269.21 479.904 1246.31 462.729 1221.21C432.798 1177.46 365.75 1148.55 368.058 1095.6C370.056 1049.79 446.998 1046.18 472.036 1007.75C502.912 960.368 478.244 876.048 528.302 849.676C576.625 824.219 629.038 900.302 683.521 896.341Z" stroke="#F1FAEE" stroke-opacity="0.05" stroke-width="5"/>
<path fill-rule="evenodd" clip-rule="evenodd" d="M683.604 817.835C750.384 812.979 801.063 726.706 866.583 740.49C926.97 753.194 970.981 820.698 983.882 881.007C997.541 944.864 955.721 1006.46 936.848 1068.98C925.905 1105.22 882.951 1137.78 895.587 1173.47C921.646 1247.08 1023.83 1279.24 1038.44 1355.94C1050.84 1421.05 1016.84 1496.95 965.121 1538.44C913.855 1579.56 838.248 1568.35 772.517 1569.25C713.795 1570.05 655.357 1563.52 600.188 1543.4C548.418 1524.52 482.31 1507.21 462.017 1456C437.86 1395.05 494.441 1328.73 489.208 1263.37C486.526 1229.88 458.637 1204.57 439.661 1176.83C406.593 1128.49 332.514 1096.54 335.064 1038.03C337.271 987.409 422.281 983.416 449.945 940.953C484.058 888.589 456.803 795.41 512.11 766.269C565.499 738.137 623.408 822.213 683.604 817.835Z" stroke="#F1FAEE" stroke-opacity="0.05" stroke-width="5"/>
<path fill-rule="evenodd" clip-rule="evenodd" d="M682.662 747.71C756.157 742.368 811.933 647.478 884.043 662.639C950.503 676.612 998.94 750.858 1013.14 817.191C1028.17 887.425 982.145 955.174 961.374 1023.93C949.33 1063.8 902.056 1099.61 915.963 1138.87C944.643 1219.83 1057.1 1255.2 1073.18 1339.56C1086.83 1411.17 1049.41 1494.66 992.49 1540.29C936.069 1585.51 852.858 1573.19 780.517 1574.17C715.889 1575.05 651.574 1567.88 590.857 1545.75C533.881 1524.98 461.125 1505.94 438.791 1449.62C412.204 1382.57 474.476 1309.63 468.716 1237.75C465.764 1200.91 435.07 1173.07 414.187 1142.56C377.792 1089.39 296.264 1054.25 299.071 989.899C301.5 934.221 395.058 929.829 425.504 883.124C463.048 825.53 433.053 723.045 493.921 690.992C552.68 660.051 616.412 752.525 682.662 747.71Z" stroke="#F1FAEE" stroke-opacity="0.05" stroke-width="5"/>
<path fill-rule="evenodd" clip-rule="evenodd" d="M238.462 90.8064C278.59 97.901 293.42 13.6098 334.048 16.7572C366.943 19.3056 374.493 69.888 382.285 101.948C389.072 129.876 356.193 165.579 375.411 186.949C413.273 229.054 493.911 214.939 525.905 261.658C550.676 297.83 550.8 365.501 515.366 391.317C470.942 423.683 399.127 359.349 352.306 388.139C310.72 413.709 339.858 494.508 300.524 523.422C267.172 547.938 219.026 521.087 177.908 516.334C133.647 511.219 60.0204 536.967 47.5707 494.187C28.403 428.321 147.461 363.13 115.638 302.359C85.5669 244.933 -25.9744 308.915 -72.8777 264.17C-104.69 233.822 -87.2458 169.215 -60.5271 134.299C-31.6762 96.5971 32.3258 109.023 68.9562 78.8227C98.6825 54.315 88.1118 -22.6468 126.542 -19.9298C179.471 -16.1879 186.212 81.5685 238.462 90.8064Z" stroke="#F1FAEE" stroke-opacity="0.05" stroke-width="5"/>
<path fill-rule="evenodd" clip-rule="evenodd" d="M242.87 40.7121C295.263 49.9775 314.628 -60.1059 367.675 -55.9954C410.626 -52.6672 420.483 13.3929 430.657 55.2634C439.519 91.7361 396.59 138.365 421.682 166.274C471.118 221.262 576.405 202.828 618.18 263.843C650.524 311.083 650.685 399.46 604.419 433.176C546.415 475.446 452.647 391.426 391.513 429.025C337.215 462.42 375.261 567.942 323.902 605.703C280.356 637.721 217.492 602.654 163.804 596.447C106.013 589.767 9.87992 623.393 -6.37547 567.523C-31.4026 481.502 124.05 396.363 82.4995 316.998C43.2357 242 -102.402 325.56 -163.644 267.123C-205.18 227.489 -182.404 143.113 -147.518 97.5132C-109.847 48.2747 -26.2806 64.5023 21.5473 25.0615C60.3606 -6.94541 46.5585 -107.457 96.7368 -103.908C165.846 -99.0214 174.646 28.6475 242.87 40.7121Z" stroke="#F1FAEE" stroke-opacity="0.05" stroke-width="5"/>
<path fill-rule="evenodd" clip-rule="evenodd" d="M245.471 4.13105C306.735 14.9599 329.377 -113.699 391.405 -108.895C441.626 -105.005 453.153 -27.7981 465.049 21.1377C475.411 63.7649 425.214 118.261 454.554 150.88C512.36 215.147 635.47 193.602 684.317 264.913C722.136 320.125 722.325 423.415 668.227 462.82C600.404 512.223 490.762 414.024 419.279 457.968C355.789 496.999 400.275 620.327 340.222 664.46C289.303 701.88 215.798 660.896 153.021 653.642C85.4472 645.834 -26.9603 685.135 -45.9675 619.836C-75.2313 519.301 106.537 419.795 57.9528 327.038C12.0422 239.384 -158.251 337.045 -229.859 268.747C-278.427 222.425 -251.795 123.811 -211.003 70.5168C-166.956 12.9697 -69.2423 31.9356 -13.3177 -14.1605C32.0661 -51.5683 15.9276 -169.04 74.6003 -164.893C155.408 -159.181 165.699 -9.96942 245.471 4.13105Z" stroke="#F1FAEE" stroke-opacity="0.05" stroke-width="5"/>
<circle cx="547.5" cy="102.5" r="17.5" fill="#A8DADC"/>
<ellipse cx="613" cy="72" rx="11" ry="13" fill="#E63946"/>
<circle cx="238.5" cy="261.5" r="18.5" fill="#F1FAEE"/>
<circle cx="61" cy="768" r="29" fill="#F1FAEE"/>
<circle cx="1140" cy="117" r="58" fill="#F1FAEE"/>
<circle cx="1383" cy="56" r="29" fill="#A8DADC"/>
<circle cx="1416.5" cy="227.5" r="110.5" fill="#E63946"/>
<circle cx="1353.5" cy="987.5" r="110.5" fill="#F1FAEE"/>
<circle cx="1064" cy="780" r="64" fill="#E63946"/>
<circle cx="1230.5" cy="824.5" r="36.5" fill="#A8DADC"/>
<circle cx="1063.5" cy="225.5" r="22.5" fill="#A8DADC"/>
<circle cx="223" cy="988" r="69" fill="#A8DADC"/>
<circle cx="231" cy="792" r="21" fill="#E63946"/>
<circle cx="119" cy="908" r="29" fill="#F1FAEE"/>
<circle cx="62.5" cy="828.5" r="15.5" fill="#E63946"/>
<circle cx="1267" cy="27" r="58" fill="#F1FAEE"/>
</g>
<defs>
<clipPath id="clip0">
<rect width="1440" height="1024" fill="white"/>
</clipPath>
</defs>
</svg>
